<svg width="18" height="16" viewBox="0 0 18 16" fill="none" xmlns="http://www.w3.org/2000/svg">
<path d="M8.14585 14.75L7.04169 13.7292C5.31946 12.1319 3.82641 10.6076 2.56252 9.15624C1.29863 7.70486 0.666687 6.18749 0.666687 4.60416C0.666687 3.35416 1.08683 2.30902 1.9271 1.46874C2.76738 0.628467 3.80558 0.208328 5.04169 0.208328C5.75002 0.208328 6.45141 0.378467 7.14585 0.718745C7.8403 1.05902 8.45835 1.61805 9.00002 2.39583C9.61113 1.61805 10.2431 1.05902 10.8959 0.718745C11.5486 0.378467 12.2361 0.208328 12.9584 0.208328C14.1945 0.208328 15.2327 0.628467 16.0729 1.46874C16.9132 2.30902 17.3334 3.35416 17.3334 4.60416C17.3334 6.18749 16.7014 7.70486 15.4375 9.15624C14.1736 10.6076 12.6806 12.1319 10.9584 13.7292L9.85419 14.75C9.61808 14.9722 9.33335 15.0833 9.00002 15.0833C8.66669 15.0833 8.38196 14.9722 8.14585 14.75ZM8.45835 3.77083C8.08335 3.09027 7.5903 2.53472 6.97919 2.10416C6.36808 1.67361 5.72224 1.45833 5.04169 1.45833C4.12502 1.45833 3.37502 1.75347 2.79169 2.34374C2.20835 2.93402 1.91669 3.68749 1.91669 4.60416C1.91669 5.40972 2.18752 6.25347 2.72919 7.13541C3.27085 8.01736 3.91669 8.87499 4.66669 9.70833C5.41669 10.5417 6.19447 11.316 7.00002 12.0312C7.80558 12.7465 8.47224 13.3472 9.00002 13.8333C9.5278 13.3611 10.1945 12.7639 11 12.0417C11.8056 11.3194 12.5834 10.5382 13.3334 9.69791C14.0834 8.85763 14.7292 7.99652 15.2709 7.11458C15.8125 6.23263 16.0834 5.39583 16.0834 4.60416C16.0834 3.68749 15.7882 2.93402 15.1979 2.34374C14.6077 1.75347 13.8611 1.45833 12.9584 1.45833C12.2639 1.45833 11.6146 1.67013 11.0104 2.09374C10.4063 2.51736 9.9028 3.07638 9.50002 3.77083C9.43058 3.88194 9.35419 3.9618 9.27085 4.01041C9.18752 4.05902 9.0903 4.08333 8.97919 4.08333C8.86808 4.08333 8.76738 4.05902 8.6771 4.01041C8.58683 3.9618 8.51391 3.88194 8.45835 3.77083Z" fill="white"/>
</svg>
