<svg width="18" height="19" viewBox="0 0 18 19" fill="none" xmlns="http://www.w3.org/2000/svg">
<path d="M1.41669 18.3333C1.06946 18.3333 0.774326 18.2118 0.53127 17.9688C0.288215 17.7257 0.166687 17.4306 0.166687 17.0833V2.91667C0.166687 2.56944 0.288215 2.27431 0.53127 2.03125C0.774326 1.78819 1.06946 1.66667 1.41669 1.66667H9.33335L8.08335 2.91667H1.41669V17.0833H11.4167V14.1667H12.6667V17.0833C12.6667 17.4306 12.5452 17.7257 12.3021 17.9688C12.059 18.2118 11.7639 18.3333 11.4167 18.3333H1.41669ZM3.50002 14.7917V13.5417H9.33335V14.7917H3.50002ZM3.50002 12.2917V11.0417H7.66669V12.2917H3.50002ZM11.4167 12.5L8.08335 9.16667H5.16669V5H8.08335L11.4167 1.66667V12.5ZM12.6667 10.5833V3.375C13.4445 3.66667 14.0556 4.18056 14.5 4.91667C14.9445 5.65278 15.1667 6.375 15.1667 7.08333C15.1667 7.79167 14.9236 8.49306 14.4375 9.1875C13.9514 9.88194 13.3611 10.3472 12.6667 10.5833ZM12.6667 13.5417V12.25C13.6389 11.9028 14.507 11.2778 15.2709 10.375C16.0347 9.47222 16.4167 8.375 16.4167 7.08333C16.4167 5.79167 16.0347 4.69444 15.2709 3.79167C14.507 2.88889 13.6389 2.26389 12.6667 1.91667V0.625C14.0834 1 15.2709 1.78125 16.2292 2.96875C17.1875 4.15625 17.6667 5.52778 17.6667 7.08333C17.6667 8.63889 17.1875 10.0104 16.2292 11.1979C15.2709 12.3854 14.0834 13.1667 12.6667 13.5417Z" fill="#888D92"/>
</svg>
