<svg width="16" height="16" viewBox="0 0 16 16" fill="none" xmlns="http://www.w3.org/2000/svg">
<path d="M8 15.5C5.91667 15.5 4.14583 14.7708 2.6875 13.3125C1.22917 11.8542 0.5 10.0833 0.5 8.00001C0.5 6.12501 1.05208 4.53473 2.15625 3.22917C3.26042 1.92362 4.70833 1.08334 6.5 0.708339C7.06944 0.597228 7.45833 0.69445 7.66667 1.00001C7.875 1.30556 7.86806 1.72223 7.64583 2.25001C7.52083 2.56945 7.42361 2.89584 7.35417 3.22917C7.28472 3.56251 7.25 3.90278 7.25 4.25001C7.25 5.50001 7.6875 6.56251 8.5625 7.43751C9.4375 8.31251 10.5 8.75 11.75 8.75C12.0972 8.75 12.434 8.71876 12.7604 8.65626C13.0868 8.59376 13.4028 8.50695 13.7083 8.39584C14.3056 8.17362 14.75 8.18403 15.0417 8.42709C15.3333 8.67014 15.4097 9.08334 15.2708 9.66667C14.8958 11.3472 14.0556 12.7396 12.75 13.8438C11.4444 14.9479 9.86111 15.5 8 15.5ZM8 14.25C9.51389 14.25 10.8333 13.7813 11.9583 12.8438C13.0833 11.9063 13.7847 10.8056 14.0625 9.54167C13.7153 9.69445 13.3438 9.80903 12.9479 9.88542C12.5521 9.96181 12.1528 10 11.75 10C10.1528 10 8.79514 9.44098 7.67708 8.32292C6.55903 7.20487 6 5.84723 6 4.25001C6 3.91667 6.03472 3.55903 6.10417 3.17709C6.17361 2.79514 6.29861 2.36112 6.47917 1.87501C5.11806 2.25001 3.98958 3.01042 3.09375 4.15626C2.19792 5.30209 1.75 6.58334 1.75 8.00001C1.75 9.73612 2.35764 11.2118 3.57292 12.4271C4.78819 13.6424 6.26389 14.25 8 14.25Z" fill="white"/>
</svg>
