<svg width="19" height="14" viewBox="0 0 19 14" fill="none" xmlns="http://www.w3.org/2000/svg">
<path d="M11.1667 4.33331C11.1667 4.24998 11.1945 4.17012 11.25 4.09373C11.3056 4.01734 11.3681 3.96526 11.4375 3.93748C11.8542 3.7847 12.2813 3.66665 12.7188 3.58331C13.1563 3.49998 13.6111 3.45831 14.0833 3.45831C14.3889 3.45831 14.6875 3.47567 14.9792 3.5104C15.2708 3.54512 15.5556 3.5972 15.8333 3.66665C15.9167 3.69442 15.9931 3.74651 16.0625 3.8229C16.132 3.89929 16.1667 3.98609 16.1667 4.08331C16.1667 4.23609 16.1146 4.35415 16.0104 4.43748C15.9063 4.52081 15.7778 4.54165 15.625 4.49998C15.3889 4.43054 15.1424 4.37845 14.8854 4.34373C14.6285 4.30901 14.3611 4.29165 14.0833 4.29165C13.6806 4.29165 13.2917 4.32984 12.9167 4.40623C12.5417 4.48262 12.1736 4.5972 11.8125 4.74998C11.6181 4.81942 11.4618 4.81595 11.3438 4.73956C11.2257 4.66317 11.1667 4.52776 11.1667 4.33331ZM11.1667 8.91665C11.1667 8.83331 11.1945 8.74998 11.25 8.66665C11.3056 8.58331 11.3681 8.52776 11.4375 8.49998C11.8542 8.3472 12.2813 8.23262 12.7188 8.15623C13.1563 8.07984 13.6111 8.04165 14.0833 8.04165C14.3889 8.04165 14.6875 8.05901 14.9792 8.09373C15.2708 8.12845 15.5556 8.18053 15.8333 8.24998C15.9167 8.27776 15.9931 8.32984 16.0625 8.40623C16.132 8.48262 16.1667 8.56942 16.1667 8.66665C16.1667 8.81942 16.1146 8.93748 16.0104 9.02081C15.9063 9.10415 15.7778 9.12498 15.625 9.08331C15.3889 9.01387 15.1424 8.96179 14.8854 8.92706C14.6285 8.89234 14.3611 8.87498 14.0833 8.87498C13.6806 8.87498 13.2917 8.9097 12.9167 8.97915C12.5417 9.04859 12.1736 9.1597 11.8125 9.31248C11.6181 9.38192 11.4618 9.38192 11.3438 9.31248C11.2257 9.24303 11.1667 9.11109 11.1667 8.91665ZM11.1667 6.62498C11.1667 6.54165 11.1945 6.46178 11.25 6.3854C11.3056 6.30901 11.3681 6.25692 11.4375 6.22915C11.8542 6.07637 12.2813 5.95831 12.7188 5.87498C13.1563 5.79165 13.6111 5.74998 14.0833 5.74998C14.3889 5.74998 14.6875 5.76734 14.9792 5.80206C15.2708 5.83679 15.5556 5.88887 15.8333 5.95831C15.9167 5.98609 15.9931 6.03817 16.0625 6.11456C16.132 6.19095 16.1667 6.27776 16.1667 6.37498C16.1667 6.52776 16.1146 6.64581 16.0104 6.72915C15.9063 6.81248 15.7778 6.83331 15.625 6.79165C15.3889 6.7222 15.1424 6.67012 14.8854 6.6354C14.6285 6.60067 14.3611 6.58331 14.0833 6.58331C13.6806 6.58331 13.2917 6.62151 12.9167 6.6979C12.5417 6.77428 12.1736 6.88887 11.8125 7.04165C11.6181 7.11109 11.4618 7.10762 11.3438 7.03123C11.2257 6.95484 11.1667 6.81942 11.1667 6.62498ZM4.66668 10.75C5.41668 10.75 6.14237 10.8368 6.84376 11.0104C7.54515 11.184 8.23612 11.4444 8.91668 11.7916V2.89581C8.29168 2.47915 7.61459 2.15623 6.88543 1.92706C6.15626 1.6979 5.41668 1.58331 4.66668 1.58331C4.1389 1.58331 3.62154 1.64929 3.11459 1.78123C2.60765 1.91317 2.09723 2.07637 1.58334 2.27081V11.3125C2.0139 11.118 2.50348 10.9757 3.05209 10.8854C3.6007 10.7951 4.1389 10.75 4.66668 10.75ZM10.1667 11.7916C10.8611 11.4444 11.5417 11.184 12.2083 11.0104C12.875 10.8368 13.5833 10.75 14.3333 10.75C14.8611 10.75 15.4063 10.7916 15.9688 10.875C16.5313 10.9583 17.0139 11.0694 17.4167 11.2083V2.27081C16.9445 2.0347 16.4445 1.86109 15.9167 1.74998C15.3889 1.63887 14.8611 1.58331 14.3333 1.58331C13.5833 1.58331 12.8576 1.6979 12.1563 1.92706C11.4549 2.15623 10.7917 2.47915 10.1667 2.89581V11.7916ZM9.54168 13.4375C9.43057 13.4375 9.32987 13.4271 9.23959 13.4062C9.14932 13.3854 9.06946 13.3472 9.00001 13.2916C8.34723 12.8889 7.65279 12.5764 6.91668 12.3541C6.18057 12.1319 5.43057 12.0208 4.66668 12.0208C4.15279 12.0208 3.65279 12.0833 3.16668 12.2083C2.68057 12.3333 2.19445 12.4861 1.70834 12.6666C1.3889 12.8194 1.07987 12.7986 0.78126 12.6041C0.482649 12.4097 0.333344 12.1319 0.333344 11.7708V2.12498C0.333344 1.91665 0.381955 1.72567 0.479177 1.55206C0.576399 1.37845 0.722232 1.24304 0.916677 1.14581C1.50001 0.868035 2.10765 0.663174 2.73959 0.53123C3.37154 0.399285 4.0139 0.333313 4.66668 0.333313C5.54168 0.333313 6.39237 0.451369 7.21876 0.68748C8.04515 0.923591 8.81946 1.2847 9.54168 1.77081C10.25 1.2847 11.0104 0.923591 11.8229 0.68748C12.6354 0.451369 13.4722 0.333313 14.3333 0.333313C14.9861 0.333313 15.625 0.399285 16.25 0.53123C16.875 0.663174 17.4792 0.868035 18.0625 1.14581C18.257 1.24304 18.4063 1.37845 18.5104 1.55206C18.6146 1.72567 18.6667 1.91665 18.6667 2.12498V11.7708C18.6667 12.1597 18.5104 12.4548 18.1979 12.6562C17.8854 12.8576 17.5764 12.8611 17.2708 12.6666C16.7986 12.4722 16.3195 12.316 15.8333 12.1979C15.3472 12.0798 14.8472 12.0208 14.3333 12.0208C13.5833 12.0208 12.8472 12.1319 12.125 12.3541C11.4028 12.5764 10.7222 12.8889 10.0833 13.2916C10.0139 13.3472 9.93404 13.3854 9.84376 13.4062C9.75348 13.4271 9.65279 13.4375 9.54168 13.4375Z" fill="white"/>
</svg>
